<svg xmlns="http://www.w3.org/2000/svg" width="20.851" height="20.851" viewBox="0 0 20.851 20.851">
    <path d="M12.426 2c2.833 0 3.186.01 4.3.063a7.68 7.68 0 0 1 2.531.485 5.083 5.083 0 0 1 1.847 1.2A5.128 5.128 0 0 1 22.3 5.6a7.7 7.7 0 0 1 .485 2.531c.049 1.111.063 1.465.063 4.3s-.01 3.186-.063 4.3a7.707 7.707 0 0 1-.485 2.531 5.323 5.323 0 0 1-3.046 3.038 7.7 7.7 0 0 1-2.531.485c-1.111.049-1.465.063-4.3.063s-3.186-.01-4.3-.063A7.707 7.707 0 0 1 5.6 22.3a5.323 5.323 0 0 1-3.049-3.049 7.675 7.675 0 0 1-.485-2.531C2.014 15.612 2 15.258 2 12.426s.01-3.186.063-4.3A7.675 7.675 0 0 1 2.547 5.6a5.083 5.083 0 0 1 1.2-1.847A5.105 5.105 0 0 1 5.6 2.547a7.675 7.675 0 0 1 2.531-.485C9.239 2.014 9.593 2 12.426 2zm0 5.213a5.213 5.213 0 1 0 5.213 5.213 5.213 5.213 0 0 0-5.213-5.213zm6.774-.261a1.3 1.3 0 1 0-1.3 1.3 1.3 1.3 0 0 0 1.3-1.3zM12.426 9.3A3.128 3.128 0 1 1 9.3 12.426 3.127 3.127 0 0 1 12.426 9.3z" transform="translate(-2 -2)" style="fill:#000"/>
</svg>
