<svg xmlns="http://www.w3.org/2000/svg" width="21.894" height="20.12" viewBox="0 0 21.894 20.12">
    <path d="M12.447 3c6.046 0 10.947 3.82 10.947 8.533s-4.9 8.532-10.947 8.532a14.058 14.058 0 0 1-1.8-.115l-4.6 3.006c-.522.276-.707.246-.492-.431l.93-3.835c-3-1.522-4.989-4.16-4.989-7.158C1.5 6.821 6.4 3 12.447 3zm6.158 8.4 1.533-1.485a.492.492 0 0 0-.684-.707l-2.01 1.945V9.549a.492.492 0 1 0-.984 0v2.666a.483.483 0 0 0 0 .231v1.5a.492.492 0 1 0 .984 0v-1.42l.445-.431 1.489 2.12a.492.492 0 1 0 .806-.566L18.605 11.4zm-3.084 2.006H14V9.565a.492.492 0 0 0-.983 0V13.9a.491.491 0 0 0 .491.492h2.014a.492.492 0 0 0 0-.984zM9.415 12.27l.726-1.78.665 1.78zm2.63.509v-.017a.49.49 0 0 0-.132-.334L10.825 9.51a.7.7 0 0 0-1.335-.028L7.758 13.73a.492.492 0 1 0 .911.372l.344-.848h2.158l.312.834a.492.492 0 0 0 .932-.317l-.01-.027zM8.582 9.57a.493.493 0 0 0-.491-.492H4.708a.492.492 0 0 0 0 .984h1.209v3.895a.492.492 0 1 0 .984 0v-3.895H8.09a.492.492 0 0 0 .492-.492z" transform="translate(-1.5 -3)" style="fill:#000"/>
</svg>
